<?xml version="1.0" encoding="UTF-8"?>
<!DOCTYPE svg PUBLIC "-//W3C//DTD SVG 1.1//EN" "http://www.w3.org/Graphics/SVG/1.1/DTD/svg11.dtd">
<svg xmlns="http://www.w3.org/2000/svg" version="1.1" width="481px" height="259px" style="shape-rendering:geometricPrecision; text-rendering:geometricPrecision; image-rendering:optimizeQuality; fill-rule:evenodd; clip-rule:evenodd" xmlns:xlink="http://www.w3.org/1999/xlink">
<g><path style="opacity:1" fill="#3fa5e5" d="M 345.5,-0.5 C 363.833,-0.5 382.167,-0.5 400.5,-0.5C 349.269,62.2862 298.269,125.286 247.5,188.5C 228.5,189.833 209.5,189.833 190.5,188.5C 241.936,125.285 293.602,62.2854 345.5,-0.5 Z"/></g>
<g><path style="opacity:0.998" fill="#ef5bc1" d="M 193.5,25.5 C 216.169,25.3334 238.836,25.5 261.5,26C 201.408,102.848 141.074,179.515 80.5,256C 55.4933,256.833 30.4933,256.666 5.5,255.5C 68.5682,179.105 131.235,102.438 193.5,25.5 Z"/></g>
<g><path style="opacity:1" fill="#9375ef" d="M 274.5,25.5 C 285.853,25.1678 297.186,25.5012 308.5,26.5C 265.759,80.3184 223.259,134.318 181,188.5C 168.914,189.488 156.747,189.822 144.5,189.5C 144.351,188.448 144.517,187.448 145,186.5C 188.655,133.168 231.822,79.5018 274.5,25.5 Z"/></g>
<g><path style="opacity:0.302" fill="#a2b977" d="M 446.5,63.5 C 457.34,62.1762 468.34,62.1762 479.5,63.5C 479.376,64.1067 479.043,64.44 478.5,64.5C 468.013,63.5056 457.346,63.1722 446.5,63.5 Z"/></g>
<g><path style="opacity:1" fill="#4ba771" d="M 302.5,226.5 C 278.994,226.831 255.661,226.498 232.5,225.5C 274.463,171.092 316.796,116.925 359.5,63C 383.833,62.3333 408.167,62.3333 432.5,63C 389.303,117.687 345.969,172.187 302.5,226.5 Z"/></g>
<g><path style="opacity:1" fill="#7da145" d="M 446.5,63.5 C 457.346,63.1722 468.013,63.5056 478.5,64.5C 435.524,118.481 392.524,172.481 349.5,226.5C 338.321,226.828 327.321,226.495 316.5,225.5C 359.364,171.095 402.697,117.095 446.5,63.5 Z"/></g>
<g><path style="opacity:0.322" fill="#7fc098" d="M 232.5,225.5 C 255.661,226.498 278.994,226.831 302.5,226.5C 278.997,227.829 255.33,227.829 231.5,226.5C 231.624,225.893 231.957,225.56 232.5,225.5 Z"/></g>
<g><path style="opacity:0.322" fill="#a4bc7d" d="M 316.5,225.5 C 327.321,226.495 338.321,226.828 349.5,226.5C 338.326,227.824 326.993,227.824 315.5,226.5C 315.624,225.893 315.957,225.56 316.5,225.5 Z"/></g>
</svg>
